<?xml version="1.0" encoding="utf-8"?>
<!-- Generator: Adobe Illustrator 16.0.0, SVG Export Plug-In . SVG Version: 6.00 Build 0)  -->
<!DOCTYPE svg PUBLIC "-//W3C//DTD SVG 1.1//EN" "http://www.w3.org/Graphics/SVG/1.1/DTD/svg11.dtd">
<svg version="1.1" id="Layer_1" xmlns="http://www.w3.org/2000/svg" xmlns:xlink="http://www.w3.org/1999/xlink" x="0px" y="0px"
	 width="359.333px" height="360px" viewBox="0 0 359.333 360" enable-background="new 0 0 359.333 360" xml:space="preserve">
<circle fill="#FFFFFF" stroke="#59C2AE" stroke-width="7" stroke-miterlimit="10" cx="179.899" cy="180.087" r="175.833"/>
<rect x="54.535" y="66.404" fill="none" width="291.409" height="154.624"/>
<text transform="matrix(1 0 0 1 50.5352 120.6396)" fill="#66C5B3" font-family="'Yellowtail'" font-size="71.3653">Ottawa</text>
<text transform="matrix(1 0 0 1 50.5352 164.8174)" fill="#6D6D6D" font-family="'NexaBold'" font-size="52.6744">Community</text>
<text transform="matrix(1 0 0 1 50.5352 208.9951)" fill="#6D6D6D" font-family="'NexaBold'" font-size="52.6744">Pool</text>
<g>
	<g>
		<path fill="#59C2AE" d="M26.488,218.948c0,0-4.26-12.767-3.296-17.136l-0.329,0.031c52.276,113.829,206.957-64.85,292.524,10.406
			c2.809,3.047,8.457,12.13,7.869,16.572c0.773-5.832-26.377-15.369-30.793-16.547c-13.143-3.498-26.951-3.51-40.36-1.744
			c-30.149,3.97-58.772,15.867-87.017,26.544c-47.79,18.063-111.469,40.95-138.921-18.823"/>
	</g>
</g>
<g>
	<path fill="#A7DBD2" d="M46.558,273.025c0,0-5.049-10.991-4.615-14.987l-0.291,0.062c57.798,96.584,178.548-78.115,262.326-19.231
		c2.806,2.448,8.737,10.011,8.646,14.037c0.121-5.285-25.062-11.155-29.121-11.775c-12.078-1.846-24.416-0.509-36.224,2.374
		c-26.544,6.488-50.954,19.908-75.143,32.201c-40.93,20.797-95.582,47.454-125.934-3.27"/>
</g>
<g>
	<path fill="#B3E8DE" d="M108.063,318.029c0,0-4.95-7.131-5.081-9.991l-0.208,0.077c53.359,61.088,122.395-75.952,190.596-44.43
		c2.336,1.392,7.547,6.008,7.935,8.849c-0.507-3.729-19.673-4.888-22.726-4.847c-9.084,0.125-17.998,2.52-26.352,5.938
		c-18.773,7.689-35.197,19.999-51.587,31.492c-27.731,19.441-64.885,44.621-92.906,12.541"/>
</g>
</svg>
